<?xml version="1.0" encoding="UTF-8" standalone="no"?>
<!DOCTYPE svg PUBLIC "-//W3C//DTD SVG 1.1//EN" "http://www.w3.org/Graphics/SVG/1.1/DTD/svg11.dtd">
<svg width="100%" height="100%" viewBox="0 0 512 128" version="1.1" xmlns="http://www.w3.org/2000/svg" xmlns:xlink="http://www.w3.org/1999/xlink" xml:space="preserve" xmlns:serif="http://www.serif.com/" style="fill-rule:evenodd;clip-rule:evenodd;stroke-linejoin:round;stroke-miterlimit:2;">
    <g transform="matrix(5.41799,0,0,5.41799,-109.271,-212.404)">
        <path d="M20.168,56.266L20.168,45.766L23.168,45.766L23.168,50.266L27.668,50.266L27.668,45.766L30.668,45.766L30.668,56.266L27.668,56.266L27.668,51.766L23.168,51.766L23.168,56.266L20.168,56.266Z" style="fill-rule:nonzero;"/>
        <path d="M32.168,56.266L32.168,48.766L33.668,48.766L33.668,47.266L35.168,47.266L35.168,45.766L39.668,45.766L39.668,47.266L41.168,47.266L41.168,48.766L42.668,48.766L42.668,56.266L39.668,56.266L39.668,53.266L35.168,53.266L35.168,56.266L32.168,56.266ZM35.168,51.766L39.668,51.766L39.668,48.766L38.168,48.766L38.168,47.266L36.668,47.266L36.668,48.766L35.168,48.766L35.168,51.766Z" style="fill-rule:nonzero;"/>
        <path d="M47.168,56.266L47.168,54.766L45.668,54.766L45.668,53.266L44.168,53.266L44.168,48.766L45.668,48.766L45.668,47.266L47.168,47.266L47.168,45.766L53.168,45.766L53.168,47.266L54.668,47.266L54.668,48.766L51.668,48.766L51.668,47.266L48.668,47.266L48.668,48.766L47.168,48.766L47.168,53.266L48.668,53.266L48.668,54.766L51.668,54.766L51.668,53.266L54.668,53.266L54.668,54.766L53.168,54.766L53.168,56.266L47.168,56.266Z" style="fill-rule:nonzero;"/>
        <path d="M56.168,56.266L56.168,45.766L59.168,45.766L59.168,50.266L60.668,50.266L60.668,48.766L62.168,48.766L62.168,47.266L63.668,47.266L63.668,45.766L66.668,45.766L66.668,47.266L65.168,47.266L65.168,48.766L63.668,48.766L63.668,50.266L62.168,50.266L62.168,51.766L63.668,51.766L63.668,53.266L65.168,53.266L65.168,54.766L66.668,54.766L66.668,56.266L62.168,56.266L62.168,54.766L60.668,54.766L60.668,53.266L59.168,53.266L59.168,56.266L56.168,56.266Z" style="fill-rule:nonzero;"/>
        <path d="M69.668,56.266L69.668,54.766L72.668,54.766L72.668,47.266L69.668,47.266L69.668,45.766L78.668,45.766L78.668,47.266L75.668,47.266L75.668,54.766L78.668,54.766L78.668,56.266L69.668,56.266Z" style="fill-rule:nonzero;"/>
        <path d="M80.168,56.266L80.168,45.766L83.168,45.766L83.168,47.266L84.668,47.266L84.668,48.766L86.168,48.766L86.168,47.266L87.668,47.266L87.668,45.766L90.668,45.766L90.668,56.266L87.668,56.266L87.668,50.266L86.168,50.266L86.168,53.266L84.668,53.266L84.668,50.266L83.168,50.266L83.168,56.266L80.168,56.266Z" style="fill-rule:nonzero;"/>
        <path d="M93.668,56.266L93.668,54.766L92.168,54.766L92.168,47.266L93.668,47.266L93.668,45.766L101.168,45.766L101.168,47.266L102.668,47.266L102.668,54.766L101.168,54.766L101.168,56.266L93.668,56.266ZM95.168,54.766L99.668,54.766L99.668,47.266L95.168,47.266L95.168,54.766Z" style="fill-rule:nonzero;"/>
        <path d="M104.168,56.266L104.168,45.766L107.168,45.766L107.168,47.266L108.668,47.266L108.668,48.766L110.168,48.766L110.168,50.266L111.668,50.266L111.668,45.766L114.668,45.766L114.668,56.266L111.668,56.266L111.668,53.266L110.168,53.266L110.168,51.766L108.668,51.766L108.668,50.266L107.168,50.266L107.168,56.266L104.168,56.266Z" style="fill-rule:nonzero;"/>
    </g>
</svg>
