<?xml version="1.0" encoding="UTF-8"?><svg id="svg5" xmlns="http://www.w3.org/2000/svg" viewBox="0 0 3864.08 1022.6"><defs><style>.cls-1{fill:#000;stroke-width:0px;}</style></defs><g id="layer1"><path id="path992" class="cls-1" d="M410.33,976.94c41.28-12.61,79.17,6.13,88.1-28.07,8.92-34.2-25.15-67.94,1.4-99.85,26.55-31.91,112.89-29.2,128.97-59.46,16.09-30.25-18.18-72.33-27.96-109.05-9.78-36.72-24.46-86.31-27.69-111.86,37.93,17.12,66.62,21.06,98.26,3.46,31.64-17.6,40.51-29.97,58.93-66,18.42-36.03,46.28-113.66,32.78-241.3-13.51-127.65-54.04-181.46-94.97-209.44-40.93-27.98-72.45-14.41-80.34-3.69-2.46,3.61-2.31,11.19,1.42,13.5,10.42,3.84,21.65-17.43,61.32,23.11,39.67,40.54,57.24,133.29,63.04,212.47,5.8,79.19-3.51,132.15-21.56,174.28-18.05,42.13-28.64,46.33-46.97,58.59-18.33,12.26-50.27,9.7-64.66,6.16-14.39-3.53-22.38.63-22.75.34,5.4-15.63-7.25-67.5-15.56-78.16-8.31-10.65-17.93-7.65-25.51-4.15-8.76,4.45-12.51,14.27-12.44,20.19.07,5.91,3.28,10.24,9.1,23.85,5.82,13.61,9.13,40.82,3.36,58.45-5.77,17.63-12.39,60.28-52.36,66.08s-54.31-41-53.4-72.05c.91-31.05,25.65-100.74,48.49-116.81,22.85-16.07,38.42-16.36,30.7-22.96-4.18-3.29-22.98-.41-38.93,6.92-15.95,7.34-36.22,24.84-48.11,42.93-11.89,18.09-24.59,53.07-26.02,63.65-1.42,10.59-1.69,3.06-1.71.71-.02-2.35.38-3.81-5.48-17.75-5.85-13.95-33.7-46.84-51.64-58.97-17.94-12.13-32.56-16.74-44.35-20.7-13.36-5.62-27.62,3.21-28.99,16.91-.51,7.16-2.28,10.63,9.77,17.36,12.05,6.73,24.31,12.48,34.64,18.69,45.63,28.9,60.96,64.94,44.37,121.96-16.59,57.02-101.66,50.21-143.56,12.61-41.9-37.61-45.73-84.35-11.63-138.46,13.46-20.59,32.17-28.51,41.82-31.36,9.64-2.85,8.59-5.3,7.09-9.19-1.49-3.89-3.36-5.6-18.4-2.21-60.54,20.55-75.21,70.73-81.73,113.35-6.52,42.62,58.98,122.55,121.87,135.91,45.59,8.89,82.62-13.88,104.86-46.93,11.12-17.68,21.44-38.65,22.89-58.51,8.35,45.04,45.55,81.63,83.25,82.01,37.7.38,76.08-31.18,86.51-77.17,0,0,12.75,69.48,21.44,100.12,7.19,25.46,28.36,60.93,28.19,73-.17,12.07-10.03,16.9-26.25,23.2s-42.81,14.32-64.21,27.55c-21.4,13.23-39.35,37.86-44.26,59.91-3.58,18.14,19.03,48.05,11,65.2s-64.12,17.64-86.72,28.63c-22.6,10.99-56.35,36.3-78.72,36.67-22.37.37-24.9-46.76-44.62-59.62-19.72-12.86-61.26-10.86-82.17-25.69s-17.64-47.16-8.12-66.28c9.53-19.12,27.12-59.96,28.75-77.8,1.63-17.84-.94-41.17-13.64-54.14-28.38-28.9-77.29-36.06-103.29-39.18-26-3.13-60.11,3.8-56.12-37.68,3.99-41.49,20.24-153.48,23.02-193.23,6.54-53.85-5.15-119.61,2.41-161.92,7.56-42.31,49.91-112.35,116.16-161.98,72.28-43.58,128.37-67.94,200.34-74.77,11.37-.81,17.42-3.88,22.16-10.6,5.7-8.27,4.69-31.48-9.22-36.18-13.91-4.7-48.8,2.88-56.62,4.27C193.69,35.51,80.15,91.75,23.4,223.16c-26.19,60.66-12.15,146.53-10.1,196.88,2.05,50.35-3.04,114.34-7.01,137.79-3.97,23.45-5.33,46.6-6.02,67.71-.69,21.11-1.58,48.61,18.11,59.5,19.69,10.89,48.86,16.07,70.83,21.22,21.45,8.66,75.01,21.03,89.14,40.22,2.06,2.81,2.71,4.39,2.7,9.27-2.28,24.26-18.81,45.71-27.82,71.26-7.06,16.33-12.93,33.2-15.8,49.91-1.98,11.68,4.76,39.62,20.41,55.28,15.65,15.66,54.4,7.84,85.68,26.65,31.28,18.8,25.05,54.32,53.8,62.63,28.76,8.32,72.81-31.76,113-44.53h0ZM286.11,866.54c-.71-6.48-14.43-33.64-22.26-43.39-7.83-9.75-6.15,9.19-5.02,13.03,1.13,3.84,6.72,33.29,14.16,36.98,7.45,3.69,13.83-.13,13.12-6.61ZM348.11,866.03c4.3-3.16,4.69-6.49.35-17.9-4.34-11.41-9.33-25.62-14.5-36.63-5.16-11.01-7.57-13.01-9-11.58-1.43,1.43-3.43,4.57-2.19,11.56,1.24,6.98,6.18,38.3,11.88,48.85,5.7,10.55,9.15,8.86,13.46,5.7h0ZM409.75,862.39c5.72-4.6,4.05-8.53,1.83-17.2-2.22-8.67-4.16-16.62-4.27-27.36-.11-10.74,1.28-17.24,3.03-20.28,1.75-3.04.85-4.3-.89-4.3s-6.16,3.97-11.06,14.05c-4.89,10.08-5.82,32.76-4.77,43.02,1.05,10.26,10.41,16.67,16.13,12.07ZM355.3,760.6c2.36-1.34,10.69-17.9,7.49-20.93-3.2-3.04-7.4-.36-9.77,3.05,0,0,.22-21.52-.6-30.75-.82-9.23,2.62-14.6-.31-17.53-2.93-2.93-8.03,1.2-10.57,14.41-2.54,13.21-1.54,42.53,1.18,48.04s10.22,5.06,12.57,3.72h0ZM399.17,736.24c3.62-3.91,5.4-16.75,5.43-30.77.03-14.03-1.21-12.82-5.06-12.93-3.84-.11-5.62,2.55-7.45,7.44-1.83,4.89-3.48,25.09-2.55,31.26.93,6.17,6.01,8.91,9.63,5.01h0Z"/></g><path class="cls-1" d="M846.06,363.55h73.52v-61.16l48.81-13.59v74.76h164.96v41.39h-164.96v145.81c0,30.07,7.28,52.31,21.86,66.72,14.58,14.42,35.41,21.62,62.51,21.62,18.47,0,34.58-3.5,48.33-10.5,13.75-7,26.17-14.62,37.26-22.86l16,36.45c-14.42,11.54-31.62,20.8-51.59,27.8-19.98,7-40.47,10.5-61.47,10.5-16.48,0-32.03-2.37-46.65-7.1-14.62-4.73-27.49-12.05-38.61-21.93-11.12-9.89-19.98-22.55-26.57-38-6.59-15.45-9.88-33.87-9.88-55.3v-153.22h-73.52v-41.39Z"/><path class="cls-1" d="M1207.48,672.46v-41.39h83.41v-226.12h-83.41v-41.39h115.53l9.88,40.16h3.09c14-12.76,29.66-23.68,46.96-32.74,17.3-9.05,37.89-13.59,61.78-13.59,14,0,25.22,2.68,33.67,8.03,8.44,5.36,15.03,13.19,19.77,23.48,4.73,10.3,7.92,22.76,9.58,37.38,1.64,14.62,2.47,31.2,2.47,49.73l-43.25.62c0-26.14-2.58-45.34-7.72-57.6-5.15-12.26-14.52-18.39-28.11-18.39-12.77,0-24.31,1.85-34.6,5.55-10.3,3.7-19.26,8.21-26.88,13.55-7.63,5.34-14.11,10.68-19.46,16.02-5.36,5.35-9.27,9.87-11.74,13.55v181.77h118.62v41.39h-249.6Z"/><path class="cls-1" d="M1573.23,387.64c17.71-10.29,37.69-17.7,59.93-22.24,22.24-4.53,44.07-6.8,65.49-6.8s38.2,3.3,51.59,9.89c13.38,6.59,23.88,15.14,31.51,25.64,7.62,10.5,12.76,22.45,15.45,35.83,2.67,13.39,4.02,26.88,4.02,40.47,0,15.66-.42,32.34-1.24,50.04-.83,17.71-1.45,35.43-1.85,53.13,0,20.6,1.24,40.16,3.71,58.69h41.39v40.16h-81.59l-5.52-46.34h-3.1c-2.48,3.71-6.2,8.45-11.16,14.21-4.96,5.77-11.47,11.43-19.52,16.99s-17.87,10.41-29.43,14.52-25.21,6.18-40.9,6.18c-30.57,0-54.75-7.82-72.51-23.48-17.76-15.65-26.64-37.07-26.64-64.25,0-21.01,4.64-38.51,13.94-52.51,9.3-14,22.62-24.71,39.98-32.13,17.36-7.41,38.32-11.74,62.9-12.97,24.58-1.24,52.16.42,82.74,4.94,2.06-18.94,2.37-34.69.93-47.26-1.45-12.56-4.75-22.55-9.91-29.96-5.17-7.41-12.4-12.67-21.7-15.75-9.31-3.09-20.77-4.63-34.4-4.63-18.6,0-36.38,2.58-53.32,7.72-16.95,5.15-32.03,10.41-45.26,15.75l-15.5-35.83ZM1664.66,636.62c11.53,0,22.24-1.85,32.13-5.56,9.88-3.71,18.53-8.44,25.95-14.21,7.41-5.76,13.59-12.05,18.54-18.84,4.94-6.8,8.65-13.28,11.12-19.46v-43.25c-21.42-3.71-41.19-5.56-59.31-5.56s-33.78,1.96-46.96,5.87c-13.19,3.92-23.48,9.99-30.89,18.23-7.41,8.24-11.12,18.95-11.12,32.13s4.63,25.44,13.9,35.52c9.27,10.1,24.81,15.14,46.65,15.14Z"/><path class="cls-1" d="M2117.52,411.12c-9.48-3.29-19.67-6.07-30.58-8.34-10.92-2.26-21.73-3.4-32.44-3.4-40.37,0-70.43,9.5-90.2,28.5-19.77,19-29.66,49.15-29.66,90.43,0,18.18,2.88,34.39,8.65,48.63,5.76,14.25,14,26.33,24.71,36.24,10.71,9.91,23.57,17.55,38.61,22.92,15.03,5.37,31.61,8.05,49.73,8.05,19.36,0,38.2-3.35,56.53-10.05,18.32-6.7,33.67-15.5,46.03-26.4l21.62,35.83c-5.77,4.94-12.97,10.1-21.62,15.45-8.65,5.36-18.64,10.41-29.96,15.14-11.33,4.74-23.89,8.54-37.69,11.43-13.8,2.88-28.73,4.33-44.79,4.33-26.78,0-50.35-3.81-70.74-11.43-20.39-7.62-37.38-18.54-50.97-32.75-13.59-14.21-23.89-31.3-30.89-51.28-7.01-19.97-10.5-42.11-10.5-66.42,0-25.95,3.6-49.01,10.81-69.2,7.2-20.18,17.61-37.07,31.2-50.66,13.59-13.59,30.06-23.99,49.43-31.2,19.35-7.2,40.98-10.81,64.87-10.81,30.48,0,55.29,2.68,74.45,8.03,19.15,5.36,35.31,11.33,48.5,17.92l-.62,1.85v85.88h-44.48v-58.69Z"/><path class="cls-1" d="M2512.92,633.54c-7.41,6.59-16.17,12.77-26.26,18.54-10.1,5.77-21.11,10.71-33.05,14.83-11.95,4.12-24.4,7.31-37.38,9.58-12.97,2.26-26.05,3.4-39.23,3.4-24.71,0-46.55-3.81-65.49-11.43-18.95-7.62-34.81-18.54-47.57-32.75-12.77-14.21-22.45-31.2-29.04-50.97-6.59-19.77-9.88-42.01-9.88-66.73,0-25.95,3.6-49.01,10.81-69.2,7.2-20.18,17.61-37.07,31.2-50.66,13.59-13.59,30.06-23.99,49.43-31.2,19.36-7.2,40.98-10.81,64.87-10.81,17.3,0,34.39,2.27,51.28,6.8,16.88,4.54,31.82,13.08,44.79,25.64,12.97,12.57,22.96,29.87,29.96,51.9,7,22.04,9.47,50.56,7.41,85.57h-238.48c0,37.07,9.96,64.77,29.89,83.1,19.92,18.33,46.52,27.49,79.79,27.49,11.09,0,22.08-1.33,32.97-4.02,10.89-2.67,21.26-5.87,31.12-9.58,9.86-3.71,18.58-7.82,26.19-12.36,7.6-4.53,13.45-8.65,17.56-12.36l19.1,35.22ZM2382.84,396.91c-13.55,0-26.38,1.45-38.49,4.32-12.12,2.89-22.79,7.72-32.03,14.52-9.24,6.8-16.84,15.66-22.78,26.57-5.96,10.92-9.75,24.4-11.39,40.47h191.53c-2.06-27.18-10.78-48.29-26.18-63.33-15.4-15.03-35.61-22.55-60.65-22.55Z"/><path class="cls-1" d="M2566.67,672.46v-41.39h83.41v-226.12h-83.41v-41.39h115.53l9.88,40.16h3.09c14-12.76,29.66-23.68,46.96-32.74,17.3-9.05,37.89-13.59,61.78-13.59,14,0,25.22,2.68,33.67,8.03,8.44,5.36,15.03,13.19,19.77,23.48,4.73,10.3,7.92,22.76,9.58,37.38,1.64,14.62,2.47,31.2,2.47,49.73l-43.25.62c0-26.14-2.58-45.34-7.72-57.6-5.15-12.26-14.52-18.39-28.11-18.39-12.77,0-24.31,1.85-34.6,5.55-10.3,3.7-19.26,8.21-26.88,13.55-7.63,5.34-14.11,10.68-19.46,16.02-5.36,5.35-9.27,9.87-11.74,13.55v181.77h118.62v41.39h-249.6Z"/><path class="cls-1" d="M2932.41,387.64c17.71-10.29,37.69-17.7,59.93-22.24,22.24-4.53,44.07-6.8,65.49-6.8s38.2,3.3,51.59,9.89c13.38,6.59,23.88,15.14,31.51,25.64,7.62,10.5,12.76,22.45,15.45,35.83,2.67,13.39,4.02,26.88,4.02,40.47,0,15.66-.42,32.34-1.24,50.04-.83,17.71-1.45,35.43-1.85,53.13,0,20.6,1.24,40.16,3.71,58.69h41.39v40.16h-81.59l-5.52-46.34h-3.1c-2.48,3.71-6.2,8.45-11.16,14.21-4.96,5.77-11.47,11.43-19.52,16.99s-17.87,10.41-29.43,14.52-25.21,6.18-40.9,6.18c-30.57,0-54.75-7.82-72.51-23.48-17.76-15.65-26.64-37.07-26.64-64.25,0-21.01,4.64-38.51,13.94-52.51,9.3-14,22.62-24.71,39.98-32.13,17.36-7.41,38.32-11.74,62.9-12.97,24.58-1.24,52.16.42,82.74,4.94,2.06-18.94,2.37-34.69.93-47.26-1.45-12.56-4.75-22.55-9.91-29.96-5.17-7.41-12.4-12.67-21.7-15.75-9.31-3.09-20.77-4.63-34.4-4.63-18.6,0-36.38,2.58-53.32,7.72-16.95,5.15-32.03,10.41-45.26,15.75l-15.5-35.83ZM3023.85,636.62c11.53,0,22.24-1.85,32.13-5.56,9.88-3.71,18.53-8.44,25.95-14.21,7.41-5.76,13.59-12.05,18.54-18.84,4.94-6.8,8.65-13.28,11.12-19.46v-43.25c-21.42-3.71-41.19-5.56-59.31-5.56s-33.78,1.96-46.96,5.87c-13.19,3.92-23.48,9.99-30.89,18.23-7.41,8.24-11.12,18.95-11.12,32.13s4.63,25.44,13.9,35.52c9.27,10.1,24.81,15.14,46.65,15.14Z"/><path class="cls-1" d="M3224.64,363.55h73.52v-61.16l48.81-13.59v74.76h164.96v41.39h-164.96v145.81c0,30.07,7.28,52.31,21.86,66.72,14.58,14.42,35.41,21.62,62.51,21.62,18.47,0,34.58-3.5,48.33-10.5,13.75-7,26.17-14.62,37.26-22.86l16,36.45c-14.42,11.54-31.62,20.8-51.59,27.8-19.98,7-40.47,10.5-61.47,10.5-16.48,0-32.03-2.37-46.65-7.1-14.62-4.73-27.49-12.05-38.61-21.93-11.12-9.89-19.98-22.55-26.57-38-6.59-15.45-9.88-33.87-9.88-55.3v-153.22h-73.52v-41.39Z"/><path class="cls-1" d="M3815.27,589.05c0-13.18-5.14-23.37-15.4-30.58-10.27-7.2-23-12.97-38.19-17.3-15.19-4.33-31.73-8.34-49.59-12.05-17.87-3.71-34.4-8.65-49.59-14.83-15.2-6.18-27.93-14.52-38.19-25.02-10.27-10.5-15.4-25.22-15.4-44.17,0-15.65,3.4-29.04,10.19-40.16,6.8-11.12,15.75-20.28,26.88-27.49,11.12-7.2,24.1-12.56,38.92-16.06,14.83-3.49,30.27-5.25,46.34-5.25,28.83,0,53.64,3.61,74.45,10.81,20.79,7.21,37.38,14.73,49.73,22.55l-19.71,38.92c-13.55-7.41-28.23-14.52-44.04-21.31-15.81-6.8-35.62-10.19-59.43-10.19-9.04,0-17.97.93-26.8,2.78s-16.84,4.63-24.02,8.34c-7.18,3.71-12.94,8.55-17.24,14.52-4.32,5.98-6.47,13.28-6.47,21.93,0,10.72,5.13,18.95,15.4,24.71,10.26,5.77,23,10.61,38.19,14.52,15.19,3.92,31.72,7.63,49.59,11.12,17.86,3.5,34.4,8.55,49.59,15.14,15.19,6.59,27.92,15.45,38.19,26.57,10.26,11.12,15.4,26.16,15.4,45.1,0,28.42-11.23,51.9-33.67,70.43-22.45,18.53-56.13,27.8-101.01,27.8-13.59,0-26.98-1.24-40.16-3.71-13.19-2.47-25.54-5.76-37.07-9.89-11.54-4.11-22.04-8.75-31.51-13.9-9.48-5.15-17.3-10.4-23.48-15.75l24.65-40.16c4.92,4.94,11.5,9.99,19.71,15.14,8.21,5.16,17.24,9.79,27.11,13.9,9.86,4.12,20.44,7.41,31.73,9.89,11.29,2.47,22.69,3.71,34.19,3.71s21.45-.93,31.1-2.78c9.65-1.85,18.18-4.73,25.57-8.65,7.4-3.91,13.25-9.06,17.56-15.45,4.3-6.38,6.47-14.1,6.47-23.17Z"/></svg>